<svg xmlns="http://www.w3.org/2000/svg" viewBox="155 75 1270 430" width="1270" xmlns:xlink="http://www.w3.org/1999/xlink" version="1.1" height="430">
  <defs>
    <pattern patternUnits="userSpaceOnUse" width="10" id="djs-grid-pattern-901086" height="10">
      <circle r="0.5" cx="0.5" cy="0.5" style="fill: rgb(204, 204, 204);"></circle>
    </pattern>
  </defs>
  <g class="djs-group">
    <g transform="matrix(1 0 0 1 160 80)" style="display: block;" data-element-id="participant_id" class="djs-element djs-shape">
      <g class="djs-visual"><a name="l16">​</a>
        <rect rx="0" ry="0" x="0" width="1260" y="0" style="stroke-linecap: round; stroke-linejoin: round; stroke: rgb(34, 36, 42); stroke-width: 1.5px; fill: white; fill-opacity: 0.95;" height="420"></rect>
        <path d="M30,0L30,420" style="fill: none; stroke-linecap: round; stroke-linejoin: round; stroke: rgb(34, 36, 42); stroke-width: 1.5px;"></path>
        <a href="DD.html#participant_id" xmlns:svg="http://www.w3.org/2000/svg"><text transform="matrix(-1.83697e-16 -1 1 -1.83697e-16 0 420)" lineHeight="1.2" style="font-family: Arial, sans-serif; font-size: 12px; font-weight: normal; fill: rgb(34, 36, 42);" class="djs-label">
          <tspan x="78.39453125" y="18.6">Workflow D: administer vaccine business process
	  </tspan>
        </text></a>
      </g>
      <rect rx="4" x="-5" width="1270" y="-5" style="fill: none;" class="djs-outline" height="430"></rect>
      <rect x="0" width="1260" y="0" style="fill: none; stroke-opacity: 0; stroke: white; stroke-width: 15px;" class="djs-hit djs-hit-no-move" height="420"></rect>
      <rect x="0" width="1260" y="0" style="fill: none; stroke-opacity: 0; stroke: white; stroke-width: 15px;" class="djs-hit djs-hit-click-stroke" height="420"></rect>
      <rect x="0" width="30" y="0" style="fill: none; stroke-opacity: 0; stroke: white; stroke-width: 15px;" class="djs-hit djs-hit-all" height="420"></rect>
    </g>
    <g class="djs-children">
      <g class="djs-group">
        <g transform="matrix(1 0 0 1 190 80)" style="display: block;" data-element-id="VaccinationlocationHealthworker" class="djs-element djs-shape">
          <g class="djs-visual"><a name="l45">​</a>
            <rect rx="0" ry="0" x="0" width="1230" y="0" style="stroke-linecap: round; stroke-linejoin: round; stroke: rgb(34, 36, 42); stroke-width: 1.5px; fill: white; fill-opacity: 0.25;" height="420"></rect>
            <a href="DD.html#VaccinationlocationHealthworker" xmlns:svg="http://www.w3.org/2000/svg"><text transform="matrix(-1.83697e-16 -1 1 -1.83697e-16 0 420)" lineHeight="1.2" style="font-family: Arial, sans-serif; font-size: 12px; font-weight: normal; fill: rgb(34, 36, 42);" class="djs-label">
              <tspan x="118.3154296875" y="18.6">Vaccination location Health worker
	      </tspan>
            </text></a>
          </g>
          <rect x="0" width="1230" y="0" style="fill: none; stroke-opacity: 0; stroke: white; stroke-width: 15px;" class="djs-hit djs-hit-no-move" height="420"></rect>
          <rect x="0" width="1230" y="0" style="fill: none; stroke-opacity: 0; stroke: white; stroke-width: 15px;" class="djs-hit djs-hit-click-stroke" height="420"></rect>
          <rect x="0" width="30" y="0" style="fill: none; stroke-opacity: 0; stroke: white; stroke-width: 15px;" class="djs-hit djs-hit-all" height="420"></rect>
          <rect rx="4" x="-5" width="1240" y="-5" style="fill: none;" class="djs-outline" height="430"></rect>
        </g>
      </g>
      <g class="djs-group">
        <g transform="matrix(1 0 0 1 510 270)" style="display: block;" data-element-id="Activity_0hqzno8" class="djs-element djs-shape">
          <g class="djs-visual"><a name="l71">​</a>
            <rect rx="10" ry="10" x="0" width="100" y="0" style="stroke-linecap: round; stroke-linejoin: round; stroke: rgb(34, 36, 42); stroke-width: 2px; fill: white; fill-opacity: 0.95;" height="80"></rect>
            <a href="DD.html#Activity_0hqzno8" xmlns:svg="http://www.w3.org/2000/svg"><text lineHeight="1.2" style="font-family: Arial, sans-serif; font-size: 12px; font-weight: normal; fill: rgb(34, 36, 42);" class="djs-label">
              <tspan x="14.8994140625" y="29.200000000000003">1. Capture or
	      </tspan>
              <tspan x="15.97265625" y="43.6">update client
	      </tspan>
              <tspan x="32.328125" y="58">history
	      </tspan>
            </text></a>
          </g>
          <rect x="0" width="100" y="0" style="fill: none; stroke-opacity: 0; stroke: white; stroke-width: 15px;" class="djs-hit djs-hit-all" height="80"></rect>
          <rect rx="14" x="-5" width="110" y="-5" style="fill: none;" class="djs-outline" height="90"></rect>
        </g>
      </g>
      <g class="djs-group">
        <g transform="matrix(1 0 0 1 312 292)" style="display: block;" data-element-id="StartEvent_1" class="djs-element djs-shape">
          <g class="djs-visual">
            <circle r="18" cx="18" cy="18" style="stroke-linecap: round; stroke-linejoin: round; stroke: rgb(34, 36, 42); stroke-width: 2px; fill: white; fill-opacity: 0.95;"></circle>
          </g>
          <rect x="0" width="36" y="0" style="fill: none; stroke-opacity: 0; stroke: white; stroke-width: 15px;" class="djs-hit djs-hit-all" height="36"></rect>
          <circle r="23" cx="18" cy="18" style="fill: none;" class="djs-outline"></circle>
        </g>
      </g>
      <g class="djs-group">
        <g transform="matrix(1 0 0 1 296 335)" style="display: block;" data-element-id="StartEvent_1_label" class="djs-element djs-shape">
          <g class="djs-visual"><a name="l114">​</a>
            <a href="DD.html#StartEvent_1_label" xmlns:svg="http://www.w3.org/2000/svg"><text lineHeight="1.2" style="font-family: Arial, sans-serif; font-size: 11px; font-weight: normal; fill: rgb(34, 36, 42);" class="djs-label">
              <tspan x="0" y="9.899999999999999">Start workflow
	      </tspan>
            </text></a>
          </g>
          <rect x="0" width="70" y="0" style="fill: none; stroke-opacity: 0; stroke: white; stroke-width: 15px;" class="djs-hit djs-hit-all" height="14"></rect>
          <rect rx="4" x="-5" width="80" y="-5" style="fill: none;" class="djs-outline" height="24"></rect>
        </g>
      </g>
      <g class="djs-group">
        <g transform="matrix(1 0 0 1 710 270)" style="display: block;" data-element-id="Determinerequiredvaccinationsifany" class="djs-element djs-shape">
          <g class="djs-visual"><a name="l134">​</a>
            <rect rx="10" ry="10" x="0" width="100" y="0" style="stroke-linecap: round; stroke-linejoin: round; stroke: rgb(34, 36, 42); stroke-width: 2px; fill: white; fill-opacity: 0.95;" height="80"></rect>
            <a href="DD.html#Determinerequiredvaccinationsifany" xmlns:svg="http://www.w3.org/2000/svg"><text lineHeight="1.2" style="font-family: Arial, sans-serif; font-size: 12px; font-weight: normal; fill: rgb(34, 36, 42);" class="djs-label">
              <tspan x="15.65234375" y="22">2. Determine
	      </tspan>
              <tspan x="27.984375" y="36.4">required
	      </tspan>
              <tspan x="8.111328125" y="50.8">vaccination(s) if
	      </tspan>
              <tspan x="40.32421875" y="65.19999999999999">any
	      </tspan>
            </text></a>
            <rect transform="matrix(1 0 0 1 42.5 60)" rx="0" ry="0" x="0" width="14" y="0" style="stroke-linecap: round; stroke-linejoin: round; stroke: rgb(34, 36, 42); stroke-width: 1px; fill: white;" height="14"></rect>
            <path d="m42.5,60 m 7,2 l 0,10 m -5,-5 l 10,0" style="fill: white; stroke-linecap: round; stroke-linejoin: round; stroke: rgb(34, 36, 42); stroke-width: 2px;" data-marker="sub-process"></path>
            <path d="m28.000000000000004,60 m 3,2 l 0,10 m 3,-10 l 0,10 m 3,-10 l 0,10" style="fill: white; stroke-linecap: round; stroke-linejoin: round; stroke: rgb(34, 36, 42); stroke-width: 2px;" data-marker="parallel"></path>
          </g>
          <rect x="0" width="100" y="0" style="fill: none; stroke-opacity: 0; stroke: white; stroke-width: 15px;" class="djs-hit djs-hit-all" height="80"></rect>
          <rect rx="14" x="-5" width="110" y="-5" style="fill: none;" class="djs-outline" height="90"></rect>
        </g>
      </g>
      <g class="djs-group">
        <g transform="matrix(1 0 0 1 870 270)" style="display: block;" data-element-id="Checkcontraindications" class="djs-element djs-shape">
          <g class="djs-visual"><a name="l171">​</a>
            <rect rx="10" ry="10" x="0" width="100" y="0" style="stroke-linecap: round; stroke-linejoin: round; stroke: rgb(34, 36, 42); stroke-width: 2px; fill: white; fill-opacity: 0.95;" height="80"></rect>
            <a href="DD.html#Checkcontraindications" xmlns:svg="http://www.w3.org/2000/svg"><text lineHeight="1.2" style="font-family: Arial, sans-serif; font-size: 12px; font-weight: normal; fill: rgb(34, 36, 42);" class="djs-label">
              <tspan x="26.3203125" y="29.200000000000003">4. Check
	      </tspan>
              <tspan x="11.30859375" y="43.6">contraindicatio
	      </tspan>
              <tspan x="43.66015625" y="58">ns
	      </tspan>
            </text></a>
            <path d="m 15,12 c 0.909,-0.845 1.594,-2.049 1.594,-3.385 0,-2.554 -1.805,-4.62199999 -4.357,-4.62199999 -2.55199998,0 -4.28799998,2.06799999 -4.28799998,4.62199999 0,1.348 0.974,2.562 1.89599998,3.405 -0.52899998,0.187 -5.669,2.097 -5.794,4.7560005 v 6.718 h 17 v -6.718 c 0,-2.2980005 -5.5279996,-4.5950005 -6.0509996,-4.7760005 zm -8,6 l 0,5.5 m 11,0 l 0,-5" style="fill: white; stroke-linecap: round; stroke-linejoin: round; stroke: rgb(34, 36, 42); stroke-width: 0.5px;"></path>
            <path d="m 15,12 m 2.162,1.009 c 0,2.4470005 -2.158,4.4310005 -4.821,4.4310005 -2.66499998,0 -4.822,-1.981 -4.822,-4.4310005 " style="fill: white; stroke-linecap: round; stroke-linejoin: round; stroke: rgb(34, 36, 42); stroke-width: 0.5px;"></path>
            <path d="m 15,12 m -6.9,-3.80 c 0,0 2.25099998,-2.358 4.27399998,-1.177 2.024,1.181 4.221,1.537 4.124,0.965 -0.098,-0.57 -0.117,-3.79099999 -4.191,-4.13599999 -3.57499998,0.001 -4.20799998,3.36699999 -4.20699998,4.34799999 z" style="fill: rgb(34, 36, 42); stroke-linecap: round; stroke-linejoin: round; stroke: rgb(34, 36, 42); stroke-width: 0.5px;"></path>
          </g>
          <rect x="0" width="100" y="0" style="fill: none; stroke-opacity: 0; stroke: white; stroke-width: 15px;" class="djs-hit djs-hit-all" height="80"></rect>
          <rect rx="14" x="-5" width="110" y="-5" style="fill: none;" class="djs-outline" height="90"></rect>
        </g>
      </g>
      <g class="djs-group">
        <g transform="matrix(1 0 0 1 1252 292)" style="display: block;" data-element-id="Event_07kmnk3" class="djs-element djs-shape">
          <g class="djs-visual">
            <circle r="18" cx="18" cy="18" style="stroke-linecap: round; stroke-linejoin: round; stroke: rgb(34, 36, 42); stroke-width: 4px; fill: white; fill-opacity: 0.95;"></circle>
          </g>
          <rect x="0" width="36" y="0" style="fill: none; stroke-opacity: 0; stroke: white; stroke-width: 15px;" class="djs-hit djs-hit-all" height="36"></rect>
          <circle r="24" cx="18" cy="18" style="fill: none;" class="djs-outline"></circle>
        </g>
      </g>
      <g class="djs-group">
        <g transform="matrix(1 0 0 1 1238 335)" style="display: block;" data-element-id="Event_07kmnk3_label" class="djs-element djs-shape">
          <g class="djs-visual"><a name="l220">​</a>
            <a href="DD.html#Event_07kmnk3_label" xmlns:svg="http://www.w3.org/2000/svg"><text lineHeight="1.2" style="font-family: Arial, sans-serif; font-size: 11px; font-weight: normal; fill: rgb(34, 36, 42);" class="djs-label">
              <tspan x="0" y="9.899999999999999">end workflow
	      </tspan>
            </text></a>
          </g>
          <rect x="0" width="65" y="0" style="fill: none; stroke-opacity: 0; stroke: white; stroke-width: 15px;" class="djs-hit djs-hit-all" height="14"></rect>
          <rect rx="4" x="-5" width="75" y="-5" style="fill: none;" class="djs-outline" height="24"></rect>
        </g>
      </g>
      <g class="djs-group">
        <g transform="matrix(1 0 0 1 1050 270)" style="display: block;" data-element-id="Determinevaccinestobeadministeredbasedoncontraindications" class="djs-element djs-shape">
          <g class="djs-visual"><a name="l240">​</a>
            <rect rx="10" ry="10" x="0" width="100" y="0" style="stroke-linecap: round; stroke-linejoin: round; stroke: rgb(34, 36, 42); stroke-width: 2px; fill: white; fill-opacity: 0.95;" height="80"></rect>
            <a href="DD.html#Determinevaccinestobeadministeredbasedoncontraindications" xmlns:svg="http://www.w3.org/2000/svg"><text lineHeight="1.2" style="font-family: Arial, sans-serif; font-size: 12px; font-weight: normal; fill: rgb(34, 36, 42);" class="djs-label">
              <tspan x="15.65234375" y="0.39999999999999325">5. Determine
	      </tspan>
              <tspan x="7.6484375" y="14.799999999999992">vaccine(s) to be
	      </tspan>
              <tspan x="15.6484375" y="29.19999999999999">administered
	      </tspan>
              <tspan x="33.65234375" y="43.59999999999999">based
	      </tspan>
              <tspan x="43.32421875" y="57.999999999999986">on
	      </tspan>
              <tspan x="11.30859375" y="72.39999999999998">contraindicatio
	      </tspan>
              <tspan x="43.66015625" y="86.79999999999998">ns
	      </tspan>
            </text></a>
            <rect transform="matrix(1 0 0 1 42.5 60)" rx="0" ry="0" x="0" width="14" y="0" style="stroke-linecap: round; stroke-linejoin: round; stroke: rgb(34, 36, 42); stroke-width: 1px; fill: white;" height="14"></rect>
            <path d="m42.5,60 m 7,2 l 0,10 m -5,-5 l 10,0" style="fill: white; stroke-linecap: round; stroke-linejoin: round; stroke: rgb(34, 36, 42); stroke-width: 2px;" data-marker="sub-process"></path>
          </g>
          <rect x="0" width="100" y="0" style="fill: none; stroke-opacity: 0; stroke: white; stroke-width: 15px;" class="djs-hit djs-hit-all" height="80"></rect>
          <rect rx="14" x="-5" width="110" y="-5" style="fill: none;" class="djs-outline" height="90"></rect>
        </g>
      </g>
      <g class="djs-group">
        <g style="display: block;" data-element-id="Flow_01hsvp3" class="djs-element djs-connection">
          <g class="djs-visual">
            <defs>
              <marker refX="11" refY="10" viewBox="0 0 20 20" orient="auto" markerHeight="10" markerWidth="10" id="marker-bt7ejk2oc4b5dosn9tlcwqq86">
                <path d="M 1 5 L 11 10 L 1 15 Z" style="stroke-linecap: round; stroke-linejoin: round; stroke: rgb(34, 36, 42); stroke-width: 1px; fill: rgb(34, 36, 42);"></path>
              </marker>
            </defs>
            <path data-corner-radius="5" d="M348,310L510,310" style="fill: none; stroke-linecap: round; stroke-linejoin: round; stroke: rgb(34, 36, 42); stroke-width: 2px; marker-end: url('#marker-bt7ejk2oc4b5dosn9tlcwqq86');"></path>
          </g>
          <path d="M348,310L510,310" style="fill: none; stroke-opacity: 0; stroke: white; stroke-width: 15px;" class="djs-hit djs-hit-stroke"></path>
          <rect rx="4" x="343" width="172" y="305" style="fill: none;" class="djs-outline" height="10"></rect>
        </g>
      </g>
      <g class="djs-group">
        <g style="display: block;" data-element-id="Flow_1n32veh" class="djs-element djs-connection">
          <g class="djs-visual">
            <defs>
              <marker refX="11" refY="10" viewBox="0 0 20 20" orient="auto" markerHeight="10" markerWidth="10" id="marker-bq6sn5hnfgi1iy9ux8s2xesb6">
                <path d="M 1 5 L 11 10 L 1 15 Z" style="stroke-linecap: round; stroke-linejoin: round; stroke: rgb(34, 36, 42); stroke-width: 1px; fill: rgb(34, 36, 42);"></path>
              </marker>
            </defs>
            <path data-corner-radius="5" d="M610,310L710,310" style="fill: none; stroke-linecap: round; stroke-linejoin: round; stroke: rgb(34, 36, 42); stroke-width: 2px; marker-end: url('#marker-bq6sn5hnfgi1iy9ux8s2xesb6');"></path>
          </g>
          <path d="M610,310L710,310" style="fill: none; stroke-opacity: 0; stroke: white; stroke-width: 15px;" class="djs-hit djs-hit-stroke"></path>
          <rect rx="4" x="605" width="110" y="305" style="fill: none;" class="djs-outline" height="10"></rect>
        </g>
      </g>
      <g class="djs-group">
        <g style="display: block;" data-element-id="Flow_15fnxou" class="djs-element djs-connection">
          <g class="djs-visual">
            <defs>
              <marker refX="11" refY="10" viewBox="0 0 20 20" orient="auto" markerHeight="10" markerWidth="10" id="marker-92qwgw37tfxtln4b4jylw86tj">
                <path d="M 1 5 L 11 10 L 1 15 Z" style="stroke-linecap: round; stroke-linejoin: round; stroke: rgb(34, 36, 42); stroke-width: 1px; fill: rgb(34, 36, 42);"></path>
              </marker>
            </defs>
            <path data-corner-radius="5" d="M810,310L870,310" style="fill: none; stroke-linecap: round; stroke-linejoin: round; stroke: rgb(34, 36, 42); stroke-width: 2px; marker-end: url('#marker-92qwgw37tfxtln4b4jylw86tj');"></path>
          </g>
          <path d="M810,310L870,310" style="fill: none; stroke-opacity: 0; stroke: white; stroke-width: 15px;" class="djs-hit djs-hit-stroke"></path>
          <rect rx="4" x="805" width="70" y="305" style="fill: none;" class="djs-outline" height="10"></rect>
        </g>
      </g>
      <g class="djs-group">
        <g style="display: block;" data-element-id="Flow_0hf39rg" class="djs-element djs-connection">
          <g class="djs-visual">
            <defs>
              <marker refX="11" refY="10" viewBox="0 0 20 20" orient="auto" markerHeight="10" markerWidth="10" id="marker-aggeg84uy2jckc523botbjvkg">
                <path d="M 1 5 L 11 10 L 1 15 Z" style="stroke-linecap: round; stroke-linejoin: round; stroke: rgb(34, 36, 42); stroke-width: 1px; fill: rgb(34, 36, 42);"></path>
              </marker>
            </defs>
            <path data-corner-radius="5" d="M1150,310L1252,310" style="fill: none; stroke-linecap: round; stroke-linejoin: round; stroke: rgb(34, 36, 42); stroke-width: 2px; marker-end: url('#marker-aggeg84uy2jckc523botbjvkg');"></path>
          </g>
          <path d="M1150,310L1252,310" style="fill: none; stroke-opacity: 0; stroke: white; stroke-width: 15px;" class="djs-hit djs-hit-stroke"></path>
          <rect rx="4" x="1145" width="112" y="305" style="fill: none;" class="djs-outline" height="10"></rect>
        </g>
      </g>
      <g class="djs-group">
        <g style="display: block;" data-element-id="Flow_10fc0g1" class="djs-element djs-connection">
          <g class="djs-visual">
            <defs>
              <marker refX="11" refY="10" viewBox="0 0 20 20" orient="auto" markerHeight="10" markerWidth="10" id="marker-1d4haussgkkgeygjr1a75o3xp">
                <path d="M 1 5 L 11 10 L 1 15 Z" style="stroke-linecap: round; stroke-linejoin: round; stroke: rgb(34, 36, 42); stroke-width: 1px; fill: rgb(34, 36, 42);"></path>
              </marker>
            </defs>
            <path data-corner-radius="5" d="M970,310L1050,310" style="fill: none; stroke-linecap: round; stroke-linejoin: round; stroke: rgb(34, 36, 42); stroke-width: 2px; marker-end: url('#marker-1d4haussgkkgeygjr1a75o3xp');"></path>
          </g>
          <path d="M970,310L1050,310" style="fill: none; stroke-opacity: 0; stroke: white; stroke-width: 15px;" class="djs-hit djs-hit-stroke"></path>
          <rect rx="4" x="965" width="90" y="305" style="fill: none;" class="djs-outline" height="10"></rect>
        </g>
      </g>
    </g>
  </g>
  <g class="djs-group">
    <g transform="matrix(1 0 0 1 750 120)" style="display: block;" data-element-id="TextAnnotation_0t002em" class="djs-element djs-shape">
      <g class="djs-visual"><a name="l401">​</a>
        <rect rx="0" ry="0" x="0" width="247" y="0" style="stroke-linecap: round; stroke-linejoin: round; stroke: none; stroke-width: 2px; fill: none;" height="94"></rect>
        <path d="m 0, 0 m 10,0 l -10,0 l 0,94 l 10,0" style="fill: none; stroke-linecap: round; stroke-linejoin: round; stroke: rgb(34, 36, 42); stroke-width: 2px;"></path>
        <a href="DD.html#TextAnnotation_0t002em" xmlns:svg="http://www.w3.org/2000/svg"><text lineHeight="1.2" style="font-family: Arial, sans-serif; font-size: 12px; font-weight: normal; fill: rgb(34, 36, 42);" class="djs-label">
          <tspan x="7" y="17.799999999999997">this is maybe a collapsible task w/ all the
	  </tspan>
          <tspan x="7" y="32.199999999999996">questionnaires? or a single questionnaire
	  </tspan>
          <tspan x="7" y="46.599999999999994">across all vaccines which only shows
	  </tspan>
          <tspan x="7" y="60.99999999999999">contradication questions if a vaccine is
	  </tspan>
          <tspan x="7" y="75.39999999999999">due?
	  </tspan>
        </text></a>
      </g>
      <rect x="0" width="247" y="0" style="fill: none; stroke-opacity: 0; stroke: white; stroke-width: 15px;" class="djs-hit djs-hit-all" height="94"></rect>
      <rect rx="4" x="-5" width="257" y="-5" style="fill: none;" class="djs-outline" height="104"></rect>
    </g>
  </g>
  <g class="djs-group">
    <g transform="matrix(1 0 0 1 1190 120)" style="display: block;" data-element-id="TextAnnotation_1wz9urs" class="djs-element djs-shape">
      <g class="djs-visual"><a name="l437">​</a>
        <rect rx="0" ry="0" x="0" width="220" y="0" style="stroke-linecap: round; stroke-linejoin: round; stroke: none; stroke-width: 2px; fill: none;" height="140"></rect>
        <path d="m 0, 0 m 10,0 l -10,0 l 0,140 l 10,0" style="fill: none; stroke-linecap: round; stroke-linejoin: round; stroke: rgb(34, 36, 42); stroke-width: 2px;"></path>
        <a href="DD.html#TextAnnotation_1wz9urs" xmlns:svg="http://www.w3.org/2000/svg"><text lineHeight="1.2" style="font-family: Arial, sans-serif; font-size: 12px; font-weight: normal; fill: rgb(34, 36, 42);" class="djs-label">
          <tspan x="7" y="17.799999999999997">this is a long display name.&nbsp;
	  </tspan>
          <tspan x="7" y="32.199999999999996">camunda will not resize task.&nbsp;
	  </tspan>
          <tspan x="7" y="46.599999999999994">we can put a short name and full
	  </tspan>
          <tspan x="7" y="60.99999999999999">name in this comment perhaps.&nbsp;
	  </tspan>
          <tspan x="7" y="75.39999999999999">or not use camunda.
	  </tspan>
          <tspan x="7" y="89.79999999999998">Some arrogance there:
	  </tspan>
          <tspan x="7" y="104.19999999999999">https://forum.bpmn.io/t/cannot-resize-
	  </tspan>
          <tspan x="7" y="118.6">task-to-fit-large-text-content/247
	  </tspan>
        </text></a>
      </g>
      <rect x="0" width="220" y="0" style="fill: none; stroke-opacity: 0; stroke: white; stroke-width: 15px;" class="djs-hit djs-hit-all" height="140"></rect>
      <rect rx="4" x="-5" width="230" y="-5" style="fill: none;" class="djs-outline" height="150"></rect>
    </g>
  </g>
  <g class="djs-group">
    <g style="display: block;" data-element-id="Association_09grjkd" class="djs-element djs-connection">
      <g class="djs-visual">
        <path data-corner-radius="5" d="M883,270L832,214" style="fill: none; stroke-linecap: round; stroke-linejoin: round; stroke: rgb(34, 36, 42); stroke-width: 2px; stroke-dasharray: 0, 5;"></path>
      </g>
      <path d="M883,270L832,214" style="fill: none; stroke-opacity: 0; stroke: white; stroke-width: 15px;" class="djs-hit djs-hit-stroke"></path>
      <rect rx="4" x="827" width="61" y="209" style="fill: none;" class="djs-outline" height="66"></rect>
    </g>
  </g>
  <g class="djs-group">
    <g style="display: block;" data-element-id="Association_0m4dx87" class="djs-element djs-connection">
      <g class="djs-visual">
        <path data-corner-radius="5" d="M1132,270L1190,198" style="fill: none; stroke-linecap: round; stroke-linejoin: round; stroke: rgb(34, 36, 42); stroke-width: 2px; stroke-dasharray: 0, 5;"></path>
      </g>
      <path d="M1132,270L1190,198" style="fill: none; stroke-opacity: 0; stroke: white; stroke-width: 15px;" class="djs-hit djs-hit-stroke"></path>
      <rect rx="4" x="1127" width="68" y="193" style="fill: none;" class="djs-outline" height="82"></rect>
    </g>
  </g>
</svg>