<svg xmlns="http://www.w3.org/2000/svg" viewBox="142 95 647 240" width="647" xmlns:xlink="http://www.w3.org/1999/xlink" version="1.1" height="240">
  <defs>
    <pattern patternUnits="userSpaceOnUse" width="10" id="djs-grid-pattern-901086" height="10">
      <circle r="0.5" cx="0.5" cy="0.5" style="fill: rgb(204, 204, 204);"></circle>
    </pattern>
  </defs>
  <g class="djs-group">
    <g transform="matrix(1 0 0 1 152 212)" style="display: block;" data-element-id="Event_0q226xh" class="djs-element djs-shape">
      <g class="djs-visual">
        <circle r="18" cx="18" cy="18" style="stroke-linecap: round; stroke-linejoin: round; stroke: rgb(34, 36, 42); stroke-width: 2px; fill: white; fill-opacity: 0.95;"></circle>
      </g>
      <rect x="0" width="36" y="0" style="fill: none; stroke-opacity: 0; stroke: white; stroke-width: 15px;" class="djs-hit djs-hit-all" height="36"></rect>
      <circle r="23" cx="18" cy="18" style="fill: none;" class="djs-outline"></circle>
    </g>
  </g>
  <g class="djs-group">
    <g transform="matrix(1 0 0 1 147 255)" style="display: block;" data-element-id="Event_0q226xh_label" class="djs-element djs-shape">
      <g class="djs-visual"><a name="l31">​</a>
        <a href="DD.html#Event_0q226xh_label" xmlns:svg="http://www.w3.org/2000/svg"><text lineHeight="1.2" style="font-family: Arial, sans-serif; font-size: 11px; font-weight: normal; fill: rgb(34, 36, 42);" class="djs-label">
          <tspan x="0" y="9.899999999999999">inner end</tspan>
        </text></a>
      </g>
      <rect x="0" width="46" y="0" style="fill: none; stroke-opacity: 0; stroke: white; stroke-width: 15px;" class="djs-hit djs-hit-all" height="14"></rect>
      <rect rx="4" x="-5" width="56" y="-5" style="fill: none;" class="djs-outline" height="24"></rect>
    </g>
  </g>
  <g class="djs-group">
    <g transform="matrix(1 0 0 1 742 222)" style="display: block;" data-element-id="Event_09i21ru" class="djs-element djs-shape">
      <g class="djs-visual">
        <circle r="18" cx="18" cy="18" style="stroke-linecap: round; stroke-linejoin: round; stroke: rgb(34, 36, 42); stroke-width: 4px; fill: white; fill-opacity: 0.95;"></circle>
      </g>
      <rect x="0" width="36" y="0" style="fill: none; stroke-opacity: 0; stroke: white; stroke-width: 15px;" class="djs-hit djs-hit-all" height="36"></rect>
      <circle r="24" cx="18" cy="18" style="fill: none;" class="djs-outline"></circle>
    </g>
  </g>
  <g class="djs-group">
    <g transform="matrix(1 0 0 1 737 265)" style="display: block;" data-element-id="Event_09i21ru_label" class="djs-element djs-shape">
      <g class="djs-visual"><a name="l66">​</a>
        <a href="DD.html#Event_09i21ru_label" xmlns:svg="http://www.w3.org/2000/svg"><text lineHeight="1.2" style="font-family: Arial, sans-serif; font-size: 11px; font-weight: normal; fill: rgb(34, 36, 42);" class="djs-label">
          <tspan x="0" y="9.899999999999999">outer end</tspan>
        </text></a>
      </g>
      <rect x="0" width="47" y="0" style="fill: none; stroke-opacity: 0; stroke: white; stroke-width: 15px;" class="djs-hit djs-hit-all" height="14"></rect>
      <rect rx="4" x="-5" width="57" y="-5" style="fill: none;" class="djs-outline" height="24"></rect>
    </g>
  </g>
  <g class="djs-group">
    <g transform="matrix(1 0 0 1 245 205)" style="display: block;" data-element-id="Gateway_19quzyo" class="djs-element djs-shape">
      <g class="djs-visual">
        <polygon style="stroke-linecap: round; stroke-linejoin: round; stroke: rgb(34, 36, 42); stroke-width: 2px; fill: white; fill-opacity: 0.95;" points="25,0 50,25 25,50 0,25"></polygon>
        <path d="m 23,10 0,12.5 -12.5,0 0,5 12.5,0 0,12.5 5,0 0,-12.5 12.5,0 0,-5 -12.5,0 0,-12.5 -5,0 z" style="fill: rgb(34, 36, 42); stroke-linecap: round; stroke-linejoin: round; stroke: rgb(34, 36, 42); stroke-width: 1px;"></path>
      </g>
      <rect x="0" width="50" y="0" style="fill: none; stroke-opacity: 0; stroke: white; stroke-width: 15px;" class="djs-hit djs-hit-all" height="50"></rect>
      <rect rx="4" x="2" width="46" y="2" style="transform-box: fill-box; transform: rotate(45deg); transform-origin: center center; fill: none;" class="djs-outline" height="46"></rect>
    </g>
  </g>
  <g class="djs-group">
    <g transform="matrix(1 0 0 1 635 205)" style="display: block;" data-element-id="Gateway_0gywyyw" class="djs-element djs-shape">
      <g class="djs-visual">
        <polygon style="stroke-linecap: round; stroke-linejoin: round; stroke: rgb(34, 36, 42); stroke-width: 2px; fill: white; fill-opacity: 0.95;" points="25,0 50,25 25,50 0,25"></polygon>
        <path d="m 23,10 0,12.5 -12.5,0 0,5 12.5,0 0,12.5 5,0 0,-12.5 12.5,0 0,-5 -12.5,0 0,-12.5 -5,0 z" style="fill: rgb(34, 36, 42); stroke-linecap: round; stroke-linejoin: round; stroke: rgb(34, 36, 42); stroke-width: 1px;"></path>
      </g>
      <rect x="0" width="50" y="0" style="fill: none; stroke-opacity: 0; stroke: white; stroke-width: 15px;" class="djs-hit djs-hit-all" height="50"></rect>
      <rect rx="4" x="2" width="46" y="2" style="transform-box: fill-box; transform: rotate(45deg); transform-origin: center center; fill: none;" class="djs-outline" height="46"></rect>
    </g>
  </g>
  <g class="djs-group">
    <g transform="matrix(1 0 0 1 400 100)" style="display: block;" data-element-id="IMMZ.D5.DT.BCG" class="djs-element djs-shape">
      <g class="djs-visual"><a name="l120">​</a>
        <rect rx="10" ry="10" x="0" width="100" y="0" style="stroke-linecap: round; stroke-linejoin: round; stroke: rgb(34, 36, 42); stroke-width: 2px; fill: white; fill-opacity: 0.95;" height="80"></rect>
        <a href="DD.html#IMMZ.D5.DT.BCG" xmlns:svg="http://www.w3.org/2000/svg"><text lineHeight="1.2" style="font-family: Arial, sans-serif; font-size: 12px; font-weight: normal; fill: rgb(34, 36, 42);" class="djs-label">
          <tspan x="9.65234375" y="14.799999999999999">Check for BCG </tspan>
          <tspan x="11.30859375" y="29.199999999999996">contraindicatio</tspan>
          <tspan x="24.98046875" y="43.599999999999994">ns before </tspan>
          <tspan x="14.31640625" y="57.99999999999999">administering </tspan>
          <tspan x="19.6484375" y="72.39999999999999">the vaccine</tspan>
        </text></a>
        <path d="m 8,8 0,12 20,0 0,-12 zm 0,8 l 20,0 m -13,-4 l 0,8" style="fill: white; stroke-linecap: round; stroke-linejoin: round; stroke: rgb(34, 36, 42); stroke-width: 1px;"></path>
        <path d="m 8,8 0,4 20,0 0,-4 z" style="fill: rgb(34, 36, 42); stroke-linecap: round; stroke-linejoin: round; stroke: rgb(34, 36, 42); stroke-width: 1px;"></path>
      </g>
      <rect x="0" width="100" y="0" style="fill: none; stroke-opacity: 0; stroke: white; stroke-width: 15px;" class="djs-hit djs-hit-all" height="80"></rect>
      <rect rx="14" x="-5" width="110" y="-5" style="fill: none;" class="djs-outline" height="90"></rect>
    </g>
  </g>
  <g class="djs-group">
    <g transform="matrix(1 0 0 1 400 250)" style="display: block;" data-element-id="IMMZ.D5.DT.Polio" class="djs-element djs-shape">
      <g class="djs-visual"><a name="l158">​</a>
        <rect rx="10" ry="10" x="0" width="100" y="0" style="stroke-linecap: round; stroke-linejoin: round; stroke: rgb(34, 36, 42); stroke-width: 2px; fill: white; fill-opacity: 0.95;" height="80"></rect>
        <a href="DD.html#IMMZ.D5.DT.Polio" xmlns:svg="http://www.w3.org/2000/svg"><text lineHeight="1.2" style="font-family: Arial, sans-serif; font-size: 12px; font-weight: normal; fill: rgb(34, 36, 42);" class="djs-label">
          <tspan x="9.3125" y="14.799999999999999">Check for Polio </tspan>
          <tspan x="11.30859375" y="29.199999999999996">contraindicatio</tspan>
          <tspan x="24.98046875" y="43.599999999999994">ns before </tspan>
          <tspan x="14.31640625" y="57.99999999999999">administering </tspan>
          <tspan x="19.6484375" y="72.39999999999999">the vaccine</tspan>
        </text></a>
        <path d="m 8,8 0,12 20,0 0,-12 zm 0,8 l 20,0 m -13,-4 l 0,8" style="fill: white; stroke-linecap: round; stroke-linejoin: round; stroke: rgb(34, 36, 42); stroke-width: 1px;"></path>
        <path d="m 8,8 0,4 20,0 0,-4 z" style="fill: rgb(34, 36, 42); stroke-linecap: round; stroke-linejoin: round; stroke: rgb(34, 36, 42); stroke-width: 1px;"></path>
      </g>
      <rect x="0" width="100" y="0" style="fill: none; stroke-opacity: 0; stroke: white; stroke-width: 15px;" class="djs-hit djs-hit-all" height="80"></rect>
      <rect rx="14" x="-5" width="110" y="-5" style="fill: none;" class="djs-outline" height="90"></rect>
    </g>
  </g>
  <g class="djs-group">
    <g style="display: block;" data-element-id="Flow_1k9hbsd" class="djs-element djs-connection">
      <g class="djs-visual">
        <defs>
          <marker refX="11" refY="10" viewBox="0 0 20 20" orient="auto" markerHeight="10" markerWidth="10" id="marker-86q6ertaa7e209yet3p6bfz34">
            <path d="M 1 5 L 11 10 L 1 15 Z" style="stroke-linecap: round; stroke-linejoin: round; stroke: rgb(34, 36, 42); stroke-width: 1px; fill: rgb(34, 36, 42);"></path>
          </marker>
        </defs>
        <path data-corner-radius="5" d="M685,230L709,230C711.5,230,714,232.5,714,235L714,235C714,237.5,716.5,240,719,240L742,240" style="fill: none; stroke-linecap: round; stroke-linejoin: round; stroke: rgb(34, 36, 42); stroke-width: 2px; marker-end: url('#marker-86q6ertaa7e209yet3p6bfz34');"></path>
      </g>
      <path d="M685,230L714,230L714,240L742,240" style="fill: none; stroke-opacity: 0; stroke: white; stroke-width: 15px;" class="djs-hit djs-hit-stroke"></path>
      <rect rx="4" x="680" width="67" y="225" style="fill: none;" class="djs-outline" height="20"></rect>
    </g>
  </g>
  <g class="djs-group">
    <g style="display: block;" data-element-id="Flow_18qv6cw" class="djs-element djs-connection">
      <g class="djs-visual">
        <defs>
          <marker refX="11" refY="10" viewBox="0 0 20 20" orient="auto" markerHeight="10" markerWidth="10" id="marker-48fs1fjdnxnyd8irvfjae0bt8">
            <path d="M 1 5 L 11 10 L 1 15 Z" style="stroke-linecap: round; stroke-linejoin: round; stroke: rgb(34, 36, 42); stroke-width: 1px; fill: rgb(34, 36, 42);"></path>
          </marker>
        </defs>
        <path data-corner-radius="5" d="M188,230L245,230" style="fill: none; stroke-linecap: round; stroke-linejoin: round; stroke: rgb(34, 36, 42); stroke-width: 2px; marker-end: url('#marker-48fs1fjdnxnyd8irvfjae0bt8');"></path>
      </g>
      <path d="M188,230L245,230" style="fill: none; stroke-opacity: 0; stroke: white; stroke-width: 15px;" class="djs-hit djs-hit-stroke"></path>
      <rect rx="4" x="183" width="67" y="225" style="fill: none;" class="djs-outline" height="10"></rect>
    </g>
  </g>
  <g class="djs-group">
    <g style="display: block;" data-element-id="Flow_1u0a6ad" class="djs-element djs-connection">
      <g class="djs-visual">
        <defs>
          <marker refX="11" refY="10" viewBox="0 0 20 20" orient="auto" markerHeight="10" markerWidth="10" id="marker-2edf284fqsa5rek7x8abj79rn">
            <path d="M 1 5 L 11 10 L 1 15 Z" style="stroke-linecap: round; stroke-linejoin: round; stroke: rgb(34, 36, 42); stroke-width: 1px; fill: rgb(34, 36, 42);"></path>
          </marker>
        </defs>
        <path data-corner-radius="5" d="M270,205L270,145C270,142.5,272.5,140,275,140L400,140" style="fill: none; stroke-linecap: round; stroke-linejoin: round; stroke: rgb(34, 36, 42); stroke-width: 2px; marker-end: url('#marker-2edf284fqsa5rek7x8abj79rn');"></path>
      </g>
      <path d="M270,205L270,140L400,140" style="fill: none; stroke-opacity: 0; stroke: white; stroke-width: 15px;" class="djs-hit djs-hit-stroke"></path>
      <rect rx="4" x="265" width="140" y="135" style="fill: none;" class="djs-outline" height="75"></rect>
    </g>
  </g>
  <g class="djs-group">
    <g style="display: block;" data-element-id="Flow_0zl8jd9" class="djs-element djs-connection">
      <g class="djs-visual">
        <defs>
          <marker refX="11" refY="10" viewBox="0 0 20 20" orient="auto" markerHeight="10" markerWidth="10" id="marker-7coiwmq5pcqy8zun35i8evoiy">
            <path d="M 1 5 L 11 10 L 1 15 Z" style="stroke-linecap: round; stroke-linejoin: round; stroke: rgb(34, 36, 42); stroke-width: 1px; fill: rgb(34, 36, 42);"></path>
          </marker>
        </defs>
        <path data-corner-radius="5" d="M500,140L655,140C657.5,140,660,142.5,660,145L660,205" style="fill: none; stroke-linecap: round; stroke-linejoin: round; stroke: rgb(34, 36, 42); stroke-width: 2px; marker-end: url('#marker-7coiwmq5pcqy8zun35i8evoiy');"></path>
      </g>
      <path d="M500,140L660,140L660,205" style="fill: none; stroke-opacity: 0; stroke: white; stroke-width: 15px;" class="djs-hit djs-hit-stroke"></path>
      <rect rx="4" x="495" width="170" y="135" style="fill: none;" class="djs-outline" height="75"></rect>
    </g>
  </g>
  <g class="djs-group">
    <g style="display: block;" data-element-id="Flow_0e4k00i" class="djs-element djs-connection">
      <g class="djs-visual">
        <defs>
          <marker refX="11" refY="10" viewBox="0 0 20 20" orient="auto" markerHeight="10" markerWidth="10" id="marker-78xpys2iacm6iu9ikdot683cu">
            <path d="M 1 5 L 11 10 L 1 15 Z" style="stroke-linecap: round; stroke-linejoin: round; stroke: rgb(34, 36, 42); stroke-width: 1px; fill: rgb(34, 36, 42);"></path>
          </marker>
        </defs>
        <path data-corner-radius="5" d="M270,255L270,285C270,287.5,272.5,290,275,290L400,290" style="fill: none; stroke-linecap: round; stroke-linejoin: round; stroke: rgb(34, 36, 42); stroke-width: 2px; marker-end: url('#marker-78xpys2iacm6iu9ikdot683cu');"></path>
      </g>
      <path d="M270,255L270,290L400,290" style="fill: none; stroke-opacity: 0; stroke: white; stroke-width: 15px;" class="djs-hit djs-hit-stroke"></path>
      <rect rx="4" x="265" width="140" y="250" style="fill: none;" class="djs-outline" height="45"></rect>
    </g>
  </g>
  <g class="djs-group">
    <g style="display: block;" data-element-id="Flow_1fdvw5a" class="djs-element djs-connection">
      <g class="djs-visual">
        <defs>
          <marker refX="11" refY="10" viewBox="0 0 20 20" orient="auto" markerHeight="10" markerWidth="10" id="marker-aapnn44d929afi7wsg3vqhhi2">
            <path d="M 1 5 L 11 10 L 1 15 Z" style="stroke-linecap: round; stroke-linejoin: round; stroke: rgb(34, 36, 42); stroke-width: 1px; fill: rgb(34, 36, 42);"></path>
          </marker>
        </defs>
        <path data-corner-radius="5" d="M500,290L655,290C657.5,290,660,287.5,660,285L660,255" style="fill: none; stroke-linecap: round; stroke-linejoin: round; stroke: rgb(34, 36, 42); stroke-width: 2px; marker-end: url('#marker-aapnn44d929afi7wsg3vqhhi2');"></path>
      </g>
      <path d="M500,290L660,290L660,255" style="fill: none; stroke-opacity: 0; stroke: white; stroke-width: 15px;" class="djs-hit djs-hit-stroke"></path>
      <rect rx="4" x="495" width="170" y="250" style="fill: none;" class="djs-outline" height="45"></rect>
    </g>
  </g>
</svg>