<?xml version="1.0" encoding="utf-8"?>
<!-- created with bpmn-js / http://bpmn.io -->
<!DOCTYPE svg PUBLIC "-//W3C//DTD SVG 1.1//EN" "http://www.w3.org/Graphics/SVG/1.1/DTD/svg11.dtd">
<svg xmlns="http://www.w3.org/2000/svg" xmlns:xlink="http://www.w3.org/1999/xlink" width="1270" height="430" viewBox="155 75 1270 430" version="1.1">
  <defs>
    <pattern id="djs-grid-pattern-901086" width="10" height="10" patternUnits="userSpaceOnUse">
      <circle cx="0.5" cy="0.5" r="0.5" style="fill: rgb(204, 204, 204);"/>
    </pattern>
  </defs>
  <g class="djs-group">
    <g class="djs-element djs-shape" data-element-id="participant_id" style="display: block;" transform="matrix(1 0 0 1 160 80)">
      <g class="djs-visual">
	<rect x="0" y="0" width="1260" height="420" rx="0" ry="0" style="stroke-linecap: round; stroke-linejoin: round; stroke: rgb(34, 36, 42); stroke-width: 1.5px; fill: white; fill-opacity: 0.95;"/>
	<path style="fill: none; stroke-linecap: round; stroke-linejoin: round; stroke: rgb(34, 36, 42); stroke-width: 1.5px;" d="M30,0L30,420"/>
	<text lineHeight="1.2" class="djs-label" style="font-family: Arial, sans-serif; font-size: 12px; font-weight: normal; fill: rgb(34, 36, 42);" transform="matrix(-1.83697e-16 -1 1 -1.83697e-16 0 420)">
	  <tspan x="78.39453125" y="18.6">Workflow D: administer vaccine business process
	  </tspan>
	</text>
      </g>
      <rect x="-5" y="-5" rx="4" width="1270" height="430" class="djs-outline" style="fill: none;"/>
      <rect class="djs-hit djs-hit-no-move" x="0" y="0" width="1260" height="420" style="fill: none; stroke-opacity: 0; stroke: white; stroke-width: 15px;"/>
      <rect class="djs-hit djs-hit-click-stroke" x="0" y="0" width="1260" height="420" style="fill: none; stroke-opacity: 0; stroke: white; stroke-width: 15px;"/>
      <rect class="djs-hit djs-hit-all" x="0" y="0" width="30" height="420" style="fill: none; stroke-opacity: 0; stroke: white; stroke-width: 15px;"/>
    </g>
    <g class="djs-children">
      <g class="djs-group">
	<g class="djs-element djs-shape" data-element-id="VaccinationlocationHealthworker" style="display: block;" transform="matrix(1 0 0 1 190 80)">
	  <g class="djs-visual">
	    <rect x="0" y="0" width="1230" height="420" rx="0" ry="0" style="stroke-linecap: round; stroke-linejoin: round; stroke: rgb(34, 36, 42); stroke-width: 1.5px; fill: white; fill-opacity: 0.25;"/>
	    <text lineHeight="1.2" class="djs-label" style="font-family: Arial, sans-serif; font-size: 12px; font-weight: normal; fill: rgb(34, 36, 42);" transform="matrix(-1.83697e-16 -1 1 -1.83697e-16 0 420)">
	      <tspan x="118.3154296875" y="18.6">Vaccination location Health worker
	      </tspan>
	    </text>
	  </g>
	  <rect class="djs-hit djs-hit-no-move" x="0" y="0" width="1230" height="420" style="fill: none; stroke-opacity: 0; stroke: white; stroke-width: 15px;"/>
	  <rect class="djs-hit djs-hit-click-stroke" x="0" y="0" width="1230" height="420" style="fill: none; stroke-opacity: 0; stroke: white; stroke-width: 15px;"/>
	  <rect class="djs-hit djs-hit-all" x="0" y="0" width="30" height="420" style="fill: none; stroke-opacity: 0; stroke: white; stroke-width: 15px;"/>
	  <rect x="-5" y="-5" rx="4" width="1240" height="430" class="djs-outline" style="fill: none;"/>
	</g>
      </g>
      <g class="djs-group">
	<g class="djs-element djs-shape" data-element-id="Activity_0hqzno8" style="display: block;" transform="matrix(1 0 0 1 510 270)">
	  <g class="djs-visual">
	    <rect x="0" y="0" width="100" height="80" rx="10" ry="10" style="stroke-linecap: round; stroke-linejoin: round; stroke: rgb(34, 36, 42); stroke-width: 2px; fill: white; fill-opacity: 0.95;"/>
	    <text lineHeight="1.2" class="djs-label" style="font-family: Arial, sans-serif; font-size: 12px; font-weight: normal; fill: rgb(34, 36, 42);">
	      <tspan x="14.8994140625" y="29.200000000000003">1. Capture or
	      </tspan>
	      <tspan x="15.97265625" y="43.6">update client
	      </tspan>
	      <tspan x="32.328125" y="58">history
	      </tspan>
	    </text>
	  </g>
	  <rect class="djs-hit djs-hit-all" x="0" y="0" width="100" height="80" style="fill: none; stroke-opacity: 0; stroke: white; stroke-width: 15px;"/>
	  <rect x="-5" y="-5" rx="14" width="110" height="90" class="djs-outline" style="fill: none;"/>
	</g>
      </g>
      <g class="djs-group">
	<g class="djs-element djs-shape" data-element-id="StartEvent_1" style="display: block;" transform="matrix(1 0 0 1 312 292)">
	  <g class="djs-visual">
	    <circle cx="18" cy="18" r="18" style="stroke-linecap: round; stroke-linejoin: round; stroke: rgb(34, 36, 42); stroke-width: 2px; fill: white; fill-opacity: 0.95;"/>
	  </g>
	  <rect class="djs-hit djs-hit-all" x="0" y="0" width="36" height="36" style="fill: none; stroke-opacity: 0; stroke: white; stroke-width: 15px;"/>
	  <circle cx="18" cy="18" r="23" class="djs-outline" style="fill: none;"/>
	</g>
      </g>
      <g class="djs-group">
	<g class="djs-element djs-shape" data-element-id="StartEvent_1_label" style="display: block;" transform="matrix(1 0 0 1 296 335)">
	  <g class="djs-visual">
	    <text lineHeight="1.2" class="djs-label" style="font-family: Arial, sans-serif; font-size: 11px; font-weight: normal; fill: rgb(34, 36, 42);">
	      <tspan x="0" y="9.899999999999999">Start workflow
	      </tspan>
	    </text>
	  </g>
	  <rect class="djs-hit djs-hit-all" x="0" y="0" width="70" height="14" style="fill: none; stroke-opacity: 0; stroke: white; stroke-width: 15px;"/>
	  <rect x="-5" y="-5" rx="4" width="80" height="24" class="djs-outline" style="fill: none;"/>
	</g>
      </g>
      <g class="djs-group">
	<g class="djs-element djs-shape" data-element-id="Determinerequiredvaccinationsifany" style="display: block;" transform="matrix(1 0 0 1 710 270)">
	  <g class="djs-visual">
	    <rect x="0" y="0" width="100" height="80" rx="10" ry="10" style="stroke-linecap: round; stroke-linejoin: round; stroke: rgb(34, 36, 42); stroke-width: 2px; fill: white; fill-opacity: 0.95;"/>
	    <text lineHeight="1.2" class="djs-label" style="font-family: Arial, sans-serif; font-size: 12px; font-weight: normal; fill: rgb(34, 36, 42);">
	      <tspan x="15.65234375" y="22">2. Determine
	      </tspan>
	      <tspan x="27.984375" y="36.4">required
	      </tspan>
	      <tspan x="8.111328125" y="50.8">vaccination(s) if
	      </tspan>
	      <tspan x="40.32421875" y="65.19999999999999">any
	      </tspan>
	    </text>
	    <rect x="0" y="0" width="14" height="14" rx="0" ry="0" style="stroke-linecap: round; stroke-linejoin: round; stroke: rgb(34, 36, 42); stroke-width: 1px; fill: white;" transform="matrix(1 0 0 1 42.5 60)"/>
	    <path data-marker="sub-process" d="m42.5,60 m 7,2 l 0,10 m -5,-5 l 10,0" style="fill: white; stroke-linecap: round; stroke-linejoin: round; stroke: rgb(34, 36, 42); stroke-width: 2px;"/>
	    <path data-marker="parallel" d="m28.000000000000004,60 m 3,2 l 0,10 m 3,-10 l 0,10 m 3,-10 l 0,10" style="fill: white; stroke-linecap: round; stroke-linejoin: round; stroke: rgb(34, 36, 42); stroke-width: 2px;"/>
	  </g>
	  <rect class="djs-hit djs-hit-all" x="0" y="0" width="100" height="80" style="fill: none; stroke-opacity: 0; stroke: white; stroke-width: 15px;"/>
	  <rect x="-5" y="-5" rx="14" width="110" height="90" class="djs-outline" style="fill: none;"/>
	</g>
      </g>
      <g class="djs-group">
	<g class="djs-element djs-shape" data-element-id="Checkcontraindications" style="display: block;" transform="matrix(1 0 0 1 870 270)">
	  <g class="djs-visual">
	    <rect x="0" y="0" width="100" height="80" rx="10" ry="10" style="stroke-linecap: round; stroke-linejoin: round; stroke: rgb(34, 36, 42); stroke-width: 2px; fill: white; fill-opacity: 0.95;"/>
	    <text lineHeight="1.2" class="djs-label" style="font-family: Arial, sans-serif; font-size: 12px; font-weight: normal; fill: rgb(34, 36, 42);">
	      <tspan x="26.3203125" y="29.200000000000003">4. Check
	      </tspan>
	      <tspan x="11.30859375" y="43.6">contraindicatio
	      </tspan>
	      <tspan x="43.66015625" y="58">ns
	      </tspan>
	    </text>
	    <path d="m 15,12 c 0.909,-0.845 1.594,-2.049 1.594,-3.385 0,-2.554 -1.805,-4.62199999 -4.357,-4.62199999 -2.55199998,0 -4.28799998,2.06799999 -4.28799998,4.62199999 0,1.348 0.974,2.562 1.89599998,3.405 -0.52899998,0.187 -5.669,2.097 -5.794,4.7560005 v 6.718 h 17 v -6.718 c 0,-2.2980005 -5.5279996,-4.5950005 -6.0509996,-4.7760005 zm -8,6 l 0,5.5 m 11,0 l 0,-5" style="fill: white; stroke-linecap: round; stroke-linejoin: round; stroke: rgb(34, 36, 42); stroke-width: 0.5px;"/>
	    <path d="m 15,12 m 2.162,1.009 c 0,2.4470005 -2.158,4.4310005 -4.821,4.4310005 -2.66499998,0 -4.822,-1.981 -4.822,-4.4310005 " style="fill: white; stroke-linecap: round; stroke-linejoin: round; stroke: rgb(34, 36, 42); stroke-width: 0.5px;"/>
	    <path d="m 15,12 m -6.9,-3.80 c 0,0 2.25099998,-2.358 4.27399998,-1.177 2.024,1.181 4.221,1.537 4.124,0.965 -0.098,-0.57 -0.117,-3.79099999 -4.191,-4.13599999 -3.57499998,0.001 -4.20799998,3.36699999 -4.20699998,4.34799999 z" style="fill: rgb(34, 36, 42); stroke-linecap: round; stroke-linejoin: round; stroke: rgb(34, 36, 42); stroke-width: 0.5px;"/>
	  </g>
	  <rect class="djs-hit djs-hit-all" x="0" y="0" width="100" height="80" style="fill: none; stroke-opacity: 0; stroke: white; stroke-width: 15px;"/>
	  <rect x="-5" y="-5" rx="14" width="110" height="90" class="djs-outline" style="fill: none;"/>
	</g>
      </g>
      <g class="djs-group">
	<g class="djs-element djs-shape" data-element-id="Event_07kmnk3" style="display: block;" transform="matrix(1 0 0 1 1252 292)">
	  <g class="djs-visual">
	    <circle cx="18" cy="18" r="18" style="stroke-linecap: round; stroke-linejoin: round; stroke: rgb(34, 36, 42); stroke-width: 4px; fill: white; fill-opacity: 0.95;"/>
	  </g>
	  <rect class="djs-hit djs-hit-all" x="0" y="0" width="36" height="36" style="fill: none; stroke-opacity: 0; stroke: white; stroke-width: 15px;"/>
	  <circle cx="18" cy="18" r="24" class="djs-outline" style="fill: none;"/>
	</g>
      </g>
      <g class="djs-group">
	<g class="djs-element djs-shape" data-element-id="Event_07kmnk3_label" style="display: block;" transform="matrix(1 0 0 1 1238 335)">
	  <g class="djs-visual">
	    <text lineHeight="1.2" class="djs-label" style="font-family: Arial, sans-serif; font-size: 11px; font-weight: normal; fill: rgb(34, 36, 42);">
	      <tspan x="0" y="9.899999999999999">end workflow
	      </tspan>
	    </text>
	  </g>
	  <rect class="djs-hit djs-hit-all" x="0" y="0" width="65" height="14" style="fill: none; stroke-opacity: 0; stroke: white; stroke-width: 15px;"/>
	  <rect x="-5" y="-5" rx="4" width="75" height="24" class="djs-outline" style="fill: none;"/>
	</g>
      </g>
      <g class="djs-group">
	<g class="djs-element djs-shape" data-element-id="Determinevaccinestobeadministeredbasedoncontraindications" style="display: block;" transform="matrix(1 0 0 1 1050 270)">
	  <g class="djs-visual">
	    <rect x="0" y="0" width="100" height="80" rx="10" ry="10" style="stroke-linecap: round; stroke-linejoin: round; stroke: rgb(34, 36, 42); stroke-width: 2px; fill: white; fill-opacity: 0.95;"/>
	    <text lineHeight="1.2" class="djs-label" style="font-family: Arial, sans-serif; font-size: 12px; font-weight: normal; fill: rgb(34, 36, 42);">
	      <tspan x="15.65234375" y="0.39999999999999325">5. Determine
	      </tspan>
	      <tspan x="7.6484375" y="14.799999999999992">vaccine(s) to be
	      </tspan>
	      <tspan x="15.6484375" y="29.19999999999999">administered
	      </tspan>
	      <tspan x="33.65234375" y="43.59999999999999">based
	      </tspan>
	      <tspan x="43.32421875" y="57.999999999999986">on
	      </tspan>
	      <tspan x="11.30859375" y="72.39999999999998">contraindicatio
	      </tspan>
	      <tspan x="43.66015625" y="86.79999999999998">ns
	      </tspan>
	    </text>
	    <rect x="0" y="0" width="14" height="14" rx="0" ry="0" style="stroke-linecap: round; stroke-linejoin: round; stroke: rgb(34, 36, 42); stroke-width: 1px; fill: white;" transform="matrix(1 0 0 1 42.5 60)"/>
	    <path data-marker="sub-process" d="m42.5,60 m 7,2 l 0,10 m -5,-5 l 10,0" style="fill: white; stroke-linecap: round; stroke-linejoin: round; stroke: rgb(34, 36, 42); stroke-width: 2px;"/>
	  </g>
	  <rect class="djs-hit djs-hit-all" x="0" y="0" width="100" height="80" style="fill: none; stroke-opacity: 0; stroke: white; stroke-width: 15px;"/>
	  <rect x="-5" y="-5" rx="14" width="110" height="90" class="djs-outline" style="fill: none;"/>
	</g>
      </g>
      <g class="djs-group">
	<g class="djs-element djs-connection" data-element-id="Flow_01hsvp3" style="display: block;">
	  <g class="djs-visual">
	    <defs>
	      <marker id="marker-bt7ejk2oc4b5dosn9tlcwqq86" viewBox="0 0 20 20" refX="11" refY="10" markerWidth="10" markerHeight="10" orient="auto">
		<path d="M 1 5 L 11 10 L 1 15 Z" style="stroke-linecap: round; stroke-linejoin: round; stroke: rgb(34, 36, 42); stroke-width: 1px; fill: rgb(34, 36, 42);"/>
	      </marker>
	    </defs>
	    <path data-corner-radius="5" style="fill: none; stroke-linecap: round; stroke-linejoin: round; stroke: rgb(34, 36, 42); stroke-width: 2px; marker-end: url('#marker-bt7ejk2oc4b5dosn9tlcwqq86');" d="M348,310L510,310"/>
	  </g>
	  <path d="M348,310L510,310" class="djs-hit djs-hit-stroke" style="fill: none; stroke-opacity: 0; stroke: white; stroke-width: 15px;"/>
	  <rect x="343" y="305" rx="4" width="172" height="10" class="djs-outline" style="fill: none;"/>
	</g>
      </g>
      <g class="djs-group">
	<g class="djs-element djs-connection" data-element-id="Flow_1n32veh" style="display: block;">
	  <g class="djs-visual">
	    <defs>
	      <marker id="marker-bq6sn5hnfgi1iy9ux8s2xesb6" viewBox="0 0 20 20" refX="11" refY="10" markerWidth="10" markerHeight="10" orient="auto">
		<path d="M 1 5 L 11 10 L 1 15 Z" style="stroke-linecap: round; stroke-linejoin: round; stroke: rgb(34, 36, 42); stroke-width: 1px; fill: rgb(34, 36, 42);"/>
	      </marker>
	    </defs>
	    <path data-corner-radius="5" style="fill: none; stroke-linecap: round; stroke-linejoin: round; stroke: rgb(34, 36, 42); stroke-width: 2px; marker-end: url('#marker-bq6sn5hnfgi1iy9ux8s2xesb6');" d="M610,310L710,310"/>
	  </g>
	  <path d="M610,310L710,310" class="djs-hit djs-hit-stroke" style="fill: none; stroke-opacity: 0; stroke: white; stroke-width: 15px;"/>
	  <rect x="605" y="305" rx="4" width="110" height="10" class="djs-outline" style="fill: none;"/>
	</g>
      </g>
      <g class="djs-group">
	<g class="djs-element djs-connection" data-element-id="Flow_15fnxou" style="display: block;">
	  <g class="djs-visual">
	    <defs>
	      <marker id="marker-92qwgw37tfxtln4b4jylw86tj" viewBox="0 0 20 20" refX="11" refY="10" markerWidth="10" markerHeight="10" orient="auto">
		<path d="M 1 5 L 11 10 L 1 15 Z" style="stroke-linecap: round; stroke-linejoin: round; stroke: rgb(34, 36, 42); stroke-width: 1px; fill: rgb(34, 36, 42);"/>
	      </marker>
	    </defs>
	    <path data-corner-radius="5" style="fill: none; stroke-linecap: round; stroke-linejoin: round; stroke: rgb(34, 36, 42); stroke-width: 2px; marker-end: url('#marker-92qwgw37tfxtln4b4jylw86tj');" d="M810,310L870,310"/>
	  </g>
	  <path d="M810,310L870,310" class="djs-hit djs-hit-stroke" style="fill: none; stroke-opacity: 0; stroke: white; stroke-width: 15px;"/>
	  <rect x="805" y="305" rx="4" width="70" height="10" class="djs-outline" style="fill: none;"/>
	</g>
      </g>
      <g class="djs-group">
	<g class="djs-element djs-connection" data-element-id="Flow_0hf39rg" style="display: block;">
	  <g class="djs-visual">
	    <defs>
	      <marker id="marker-aggeg84uy2jckc523botbjvkg" viewBox="0 0 20 20" refX="11" refY="10" markerWidth="10" markerHeight="10" orient="auto">
		<path d="M 1 5 L 11 10 L 1 15 Z" style="stroke-linecap: round; stroke-linejoin: round; stroke: rgb(34, 36, 42); stroke-width: 1px; fill: rgb(34, 36, 42);"/>
	      </marker>
	    </defs>
	    <path data-corner-radius="5" style="fill: none; stroke-linecap: round; stroke-linejoin: round; stroke: rgb(34, 36, 42); stroke-width: 2px; marker-end: url('#marker-aggeg84uy2jckc523botbjvkg');" d="M1150,310L1252,310"/>
	  </g>
	  <path d="M1150,310L1252,310" class="djs-hit djs-hit-stroke" style="fill: none; stroke-opacity: 0; stroke: white; stroke-width: 15px;"/>
	  <rect x="1145" y="305" rx="4" width="112" height="10" class="djs-outline" style="fill: none;"/>
	</g>
      </g>
      <g class="djs-group">
	<g class="djs-element djs-connection" data-element-id="Flow_10fc0g1" style="display: block;">
	  <g class="djs-visual">
	    <defs>
	      <marker id="marker-1d4haussgkkgeygjr1a75o3xp" viewBox="0 0 20 20" refX="11" refY="10" markerWidth="10" markerHeight="10" orient="auto">
		<path d="M 1 5 L 11 10 L 1 15 Z" style="stroke-linecap: round; stroke-linejoin: round; stroke: rgb(34, 36, 42); stroke-width: 1px; fill: rgb(34, 36, 42);"/>
	      </marker>
	    </defs>
	    <path data-corner-radius="5" style="fill: none; stroke-linecap: round; stroke-linejoin: round; stroke: rgb(34, 36, 42); stroke-width: 2px; marker-end: url('#marker-1d4haussgkkgeygjr1a75o3xp');" d="M970,310L1050,310"/>
	  </g>
	  <path d="M970,310L1050,310" class="djs-hit djs-hit-stroke" style="fill: none; stroke-opacity: 0; stroke: white; stroke-width: 15px;"/>
	  <rect x="965" y="305" rx="4" width="90" height="10" class="djs-outline" style="fill: none;"/>
	</g>
      </g>
    </g>
  </g>
  <g class="djs-group">
    <g class="djs-element djs-shape" data-element-id="TextAnnotation_0t002em" style="display: block;" transform="matrix(1 0 0 1 750 120)">
      <g class="djs-visual">
	<rect x="0" y="0" width="247" height="94" rx="0" ry="0" style="stroke-linecap: round; stroke-linejoin: round; stroke: none; stroke-width: 2px; fill: none;"/>
	<path d="m 0, 0 m 10,0 l -10,0 l 0,94 l 10,0" style="fill: none; stroke-linecap: round; stroke-linejoin: round; stroke: rgb(34, 36, 42); stroke-width: 2px;"/>
	<text lineHeight="1.2" class="djs-label" style="font-family: Arial, sans-serif; font-size: 12px; font-weight: normal; fill: rgb(34, 36, 42);">
	  <tspan x="7" y="17.799999999999997">this is maybe a collapsible task w/ all the
	  </tspan>
	  <tspan x="7" y="32.199999999999996">questionnaires? or a single questionnaire
	  </tspan>
	  <tspan x="7" y="46.599999999999994">across all vaccines which only shows
	  </tspan>
	  <tspan x="7" y="60.99999999999999">contradication questions if a vaccine is
	  </tspan>
	  <tspan x="7" y="75.39999999999999">due?
	  </tspan>
	</text>
      </g>
      <rect class="djs-hit djs-hit-all" x="0" y="0" width="247" height="94" style="fill: none; stroke-opacity: 0; stroke: white; stroke-width: 15px;"/>
      <rect x="-5" y="-5" rx="4" width="257" height="104" class="djs-outline" style="fill: none;"/>
    </g>
  </g>
  <g class="djs-group">
    <g class="djs-element djs-shape" data-element-id="TextAnnotation_1wz9urs" style="display: block;" transform="matrix(1 0 0 1 1190 120)">
      <g class="djs-visual">
	<rect x="0" y="0" width="220" height="140" rx="0" ry="0" style="stroke-linecap: round; stroke-linejoin: round; stroke: none; stroke-width: 2px; fill: none;"/>
	<path d="m 0, 0 m 10,0 l -10,0 l 0,140 l 10,0" style="fill: none; stroke-linecap: round; stroke-linejoin: round; stroke: rgb(34, 36, 42); stroke-width: 2px;"/>
	<text lineHeight="1.2" class="djs-label" style="font-family: Arial, sans-serif; font-size: 12px; font-weight: normal; fill: rgb(34, 36, 42);">
	  <tspan x="7" y="17.799999999999997">this is a long display name. 
	  </tspan>
	  <tspan x="7" y="32.199999999999996">camunda will not resize task. 
	  </tspan>
	  <tspan x="7" y="46.599999999999994">we can put a short name and full
	  </tspan>
	  <tspan x="7" y="60.99999999999999">name in this comment perhaps. 
	  </tspan>
	  <tspan x="7" y="75.39999999999999">or not use camunda.
	  </tspan>
	  <tspan x="7" y="89.79999999999998">Some arrogance there:
	  </tspan>
	  <tspan x="7" y="104.19999999999999">https://forum.bpmn.io/t/cannot-resize-
	  </tspan>
	  <tspan x="7" y="118.6">task-to-fit-large-text-content/247
	  </tspan>
	</text>
      </g>
      <rect class="djs-hit djs-hit-all" x="0" y="0" width="220" height="140" style="fill: none; stroke-opacity: 0; stroke: white; stroke-width: 15px;"/>
      <rect x="-5" y="-5" rx="4" width="230" height="150" class="djs-outline" style="fill: none;"/>
    </g>
  </g>
  <g class="djs-group">
    <g class="djs-element djs-connection" data-element-id="Association_09grjkd" style="display: block;">
      <g class="djs-visual">
	<path data-corner-radius="5" style="fill: none; stroke-linecap: round; stroke-linejoin: round; stroke: rgb(34, 36, 42); stroke-width: 2px; stroke-dasharray: 0, 5;" d="M883,270L832,214"/>
      </g>
      <path d="M883,270L832,214" class="djs-hit djs-hit-stroke" style="fill: none; stroke-opacity: 0; stroke: white; stroke-width: 15px;"/>
      <rect x="827" y="209" rx="4" width="61" height="66" class="djs-outline" style="fill: none;"/>
    </g>
  </g>
  <g class="djs-group">
    <g class="djs-element djs-connection" data-element-id="Association_0m4dx87" style="display: block;">
      <g class="djs-visual">
	<path data-corner-radius="5" style="fill: none; stroke-linecap: round; stroke-linejoin: round; stroke: rgb(34, 36, 42); stroke-width: 2px; stroke-dasharray: 0, 5;" d="M1132,270L1190,198"/>
      </g>
      <path d="M1132,270L1190,198" class="djs-hit djs-hit-stroke" style="fill: none; stroke-opacity: 0; stroke: white; stroke-width: 15px;"/>
      <rect x="1127" y="193" rx="4" width="68" height="82" class="djs-outline" style="fill: none;"/>
    </g>
  </g>
</svg>
